<?xml version="1.0" standalone="no"?>
<!DOCTYPE svg PUBLIC "-//W3C//DTD SVG 20010904//EN"
 "http://www.w3.org/TR/2001/REC-SVG-20010904/DTD/svg10.dtd">
<svg version="1.0" xmlns="http://www.w3.org/2000/svg"
 width="16.000000pt" height="16.000000pt" viewBox="0 0 16.000000 16.000000"
 preserveAspectRatio="xMidYMid meet">
<metadata>
Created by potrace 1.11, written by Peter Selinger 2001-2013
</metadata>
<g transform="translate(0.000000,16.000000) scale(0.010000,-0.010000)"
fill="#000000" stroke="none">
<path d="M207 1583 c-4 -3 -7 -48 -7 -100 l0 -93 355 0 355 0 1 -42 c5 -322
-2 -924 -10 -955 -17 -62 -73 -128 -126 -148 -47 -19 -144 -24 -207 -11 -49 9
-93 47 -124 107 -30 60 -32 73 -33 180 l-1 86 -106 0 -107 0 6 -126 c7 -171
41 -261 127 -339 92 -83 285 -126 440 -96 192 36 308 150 335 328 6 43 10 258
10 544 l-1 472 126 0 126 0 0 100 0 100 -576 0 c-317 0 -580 -3 -583 -7z"/>
</g>
</svg>
