<?xml version="1.0" standalone="no"?>
<!DOCTYPE svg PUBLIC "-//W3C//DTD SVG 20010904//EN"
 "http://www.w3.org/TR/2001/REC-SVG-20010904/DTD/svg10.dtd">
<svg version="1.0" xmlns="http://www.w3.org/2000/svg"
 width="16.000000pt" height="16.000000pt" viewBox="0 0 16.000000 16.000000"
 preserveAspectRatio="xMidYMid meet">
<metadata>
Created by potrace 1.11, written by Peter Selinger 2001-2013
</metadata>
<g transform="translate(0.000000,16.000000) scale(0.002286,-0.002286)"
fill="#000000" stroke="none">
<path d="M1100 6731 c-14 -1 -27 -7 -30 -11 -4 -6 -5 -778 -1 -801 1 -3 668
-5 1484 -5 l1482 0 -1 -1950 c0 -1072 -3 -1983 -7 -2024 -21 -233 -132 -460
-321 -655 -45 -48 -152 -125 -172 -125 -7 0 -14 -3 -16 -7 -4 -11 -140 -54
-213 -68 -105 -21 -378 -33 -475 -21 -19 2 -65 7 -103 10 -37 4 -73 9 -80 11
-6 2 -28 6 -47 9 -19 3 -54 12 -78 20 -23 8 -46 16 -50 16 -41 7 -168 93 -220
150 -57 62 -136 181 -180 270 -9 19 -20 36 -24 38 -5 2 -8 11 -8 20 0 10 -7
30 -15 45 -12 24 -23 56 -41 122 -5 17 -14 58 -26 110 -6 29 -12 197 -13 400
-2 193 -3 353 -4 357 -1 3 -196 6 -435 6 -398 0 -434 -1 -438 -16 -11 -53 2
-726 17 -811 2 -14 7 -48 10 -76 41 -365 189 -706 405 -938 161 -172 397 -316
660 -404 41 -13 82 -27 90 -30 21 -8 31 -11 60 -17 14 -3 36 -9 50 -12 65 -16
272 -54 335 -60 142 -16 590 -9 685 10 24 4 82 16 110 20 38 7 59 12 125 30
33 9 68 19 78 21 85 19 417 168 417 187 0 4 6 8 13 8 23 0 211 136 290 210
119 111 247 293 301 430 10 25 23 56 29 70 6 14 11 28 12 33 2 4 4 9 5 12 1 3
3 8 4 13 1 4 7 23 14 43 7 20 14 45 16 55 2 10 11 49 20 85 21 91 25 116 32
174 3 28 8 53 10 57 15 24 18 443 19 2193 0 1084 3 1972 7 1975 3 3 241 5 527
4 l521 0 0 408 c0 382 -1 408 -17 409 -91 2 -4794 3 -4813 0z"/>
</g>
</svg>
